<svg width="20" height="18" viewBox="0 0 20 18" fill="none" xmlns="http://www.w3.org/2000/svg">
<path opacity="0.302781" fill-rule="evenodd" clip-rule="evenodd" d="M15.4055 12.4554L19.5862 16.4602C19.7729 16.6589 19.7637 16.9631 19.5653 17.1511L18.8337 17.8519C18.7356 17.9467 18.602 18 18.4627 18C18.3233 18 18.1897 17.9467 18.0916 17.8519L13.9109 13.8471C13.7953 13.7362 13.6903 13.6156 13.5973 13.4867L12.8135 12.4855C11.5164 13.4776 9.90581 14.0178 8.24602 14.0173C4.82578 14.0287 1.85372 11.7686 1.08938 8.5751C0.32505 5.38161 1.97243 2.10699 5.05623 0.689914C8.14003 -0.727158 11.8372 0.0915127 13.959 2.66125C16.0807 5.23099 16.0608 8.86596 13.9109 11.4142L14.9561 12.105C15.1193 12.2051 15.2701 12.3226 15.4055 12.4554ZM3.02011 7.00887C3.02011 9.77362 5.35983 12.0149 8.24602 12.0149C9.63201 12.0149 10.9612 11.4875 11.9413 10.5487C12.9213 9.60985 13.4719 8.33655 13.4719 7.00887C13.4719 4.24411 11.1322 2.00284 8.24602 2.00284C5.35983 2.00284 3.02011 4.24411 3.02011 7.00887Z" fill="white"/>
</svg>
